<svg width="24" height="24" viewBox="0 0 24 24" fill="none" xmlns="http://www.w3.org/2000/svg">
<path d="M10.9475 2.56626C12.3721 2.55083 14.2347 2.53026 15.8007 2.70169C16.6732 2.79683 17.395 2.94597 17.8818 3.15854C18.3892 3.37969 18.4287 3.56397 18.4287 3.64283C18.4287 3.76026 18.3858 3.90083 18.0772 4.07226C17.7481 4.25569 17.2227 4.40312 16.5018 4.50683C15.0712 4.71254 13.1418 4.71426 11.143 4.71426H11.1044C9.15096 4.71426 7.13325 4.71426 5.60068 4.9354C4.83439 5.04597 4.12125 5.21997 3.58382 5.51826C3.0241 5.83026 2.57153 6.3334 2.57153 7.0714C2.57153 7.63626 2.8621 8.06912 3.22039 8.37254C3.56925 8.66826 4.01668 8.87397 4.45639 9.02054C5.34096 9.3154 6.37639 9.42854 7.07068 9.42854H7.71439V8.14283H7.07153C6.4801 8.14283 5.58782 8.04254 4.86439 7.80083C4.50096 7.67997 4.22496 7.53769 4.05182 7.39112C3.8881 7.25226 3.85725 7.15026 3.85725 7.0714C3.85725 6.95397 3.9001 6.81426 4.20868 6.64283C4.53782 6.4594 5.0641 6.31197 5.7841 6.20826C7.21468 6.00169 9.1441 5.99997 11.143 5.99997H11.1815C13.135 5.99997 15.1535 5.99997 16.6852 5.77969C17.4515 5.66826 18.1647 5.49512 18.703 5.19597C19.2618 4.88483 19.7144 4.38254 19.7144 3.64283C19.7144 2.77112 19.0441 2.26283 18.3961 1.97997C17.7275 1.68854 16.849 1.52226 15.9404 1.42283C14.2912 1.24283 12.349 1.26512 10.9355 1.28054L10.4941 1.28569C10.4097 1.28647 10.3262 1.30388 10.2485 1.33692C10.1709 1.36995 10.1004 1.41797 10.0413 1.47822C9.98215 1.53847 9.93546 1.60978 9.90389 1.68808C9.87231 1.76637 9.85646 1.85012 9.85725 1.93454C9.85804 2.01897 9.87544 2.1024 9.90848 2.1801C9.94151 2.25779 9.98953 2.32822 10.0498 2.38736C10.11 2.44649 10.1813 2.49318 10.2596 2.52476C10.3379 2.55634 10.4217 2.57219 10.5061 2.5714L10.9475 2.56626ZM11.7858 6.85712C11.1607 6.85712 10.5611 7.10546 10.1191 7.54751C9.67702 7.98956 9.42868 8.58911 9.42868 9.21426V13.7888C8.33496 13.3851 7.38696 13.3783 6.60268 13.6765C5.60839 14.0537 5.00839 14.8688 4.74696 15.654C4.69963 15.796 4.70336 15.9501 4.7575 16.0897C4.81164 16.2293 4.9128 16.3456 5.04353 16.4185L8.94782 18.6051C9.7962 19.0801 10.4993 19.777 10.9818 20.6211L11.2844 21.1508C11.5214 21.5657 11.8789 21.8988 12.3095 22.1059C12.7401 22.313 13.2235 22.3844 13.6955 22.3105L16.0792 21.9377C16.55 21.8642 16.9875 21.6497 17.3339 21.3225C17.6803 20.9954 17.9195 20.5709 18.0198 20.1051L18.9018 16.0148C18.9952 15.5823 18.9982 15.1351 18.9108 14.7013C18.8233 14.2675 18.6472 13.8564 18.3935 13.4939C18.1398 13.1313 17.8139 12.825 17.4363 12.5942C17.0588 12.3634 16.6376 12.213 16.1992 12.1525L14.143 11.8688V9.21512C14.1431 8.9055 14.0822 8.59889 13.9638 8.31281C13.8454 8.02673 13.6718 7.76678 13.4529 7.54781C13.234 7.32884 12.9741 7.15514 12.6881 7.03662C12.402 6.91811 12.0954 6.85712 11.7858 6.85712ZM10.7144 9.21426C10.7144 8.9301 10.8273 8.65758 11.0282 8.45664C11.2291 8.25571 11.5017 8.14283 11.7858 8.14283C12.07 8.14283 12.3425 8.25571 12.5434 8.45664C12.7444 8.65758 12.8572 8.9301 12.8572 9.21426V12.4285C12.8572 12.5838 12.9134 12.7337 13.0153 12.8508C13.1172 12.9679 13.2581 13.0441 13.4118 13.0654L16.0235 13.4263C16.2864 13.4626 16.539 13.5529 16.7654 13.6914C16.9918 13.8299 17.1872 14.0136 17.3394 14.2311C17.4915 14.4486 17.5972 14.6951 17.6496 14.9553C17.7021 15.2155 17.7003 15.4837 17.6444 15.7431L16.7624 19.8343C16.7168 20.046 16.6081 20.239 16.4507 20.3877C16.2932 20.5364 16.0944 20.634 15.8804 20.6674L13.4967 21.0403C13.282 21.0739 13.0623 21.0415 12.8665 20.9474C12.6707 20.8532 12.5081 20.7018 12.4004 20.5131L12.0978 19.9834C11.4997 18.9366 10.628 18.0723 9.5761 17.4831L6.19296 15.5888C6.39268 15.2811 6.68153 15.0214 7.05868 14.8783C7.60896 14.6691 8.48153 14.6597 9.76725 15.3523C9.86514 15.4049 9.975 15.4312 10.0861 15.4287C10.1972 15.4261 10.3058 15.3949 10.4012 15.3379C10.4966 15.2809 10.5756 15.2001 10.6305 15.1035C10.6854 15.0069 10.7143 14.8977 10.7144 14.7865V9.21512V9.21426Z" fill="black"/>
</svg>
