<svg width="40" height="40" viewBox="0 0 40 40" fill="none" xmlns="http://www.w3.org/2000/svg">
<path d="M34 6C34 4.774 33.264 3.928 32.312 3.394C31.396 2.88 30.172 2.578 28.836 2.386C26.16 2 22.606 2 19.064 2H19C18.7348 2 18.4804 2.10536 18.2929 2.29289C18.1054 2.48043 18 2.73478 18 3C18 3.26522 18.1054 3.51957 18.2929 3.70711C18.4804 3.89464 18.7348 4 19 4C22.618 4 26.034 4.002 28.55 4.364C29.816 4.548 30.744 4.808 31.332 5.138C31.884 5.448 32 5.726 32 6C32 6.3 31.874 6.576 31.372 6.874C30.828 7.198 29.964 7.454 28.786 7.636C26.44 7.996 23.278 8 20 8H19.936C16.734 8 13.424 8 10.91 8.386C9.652 8.58 8.484 8.886 7.606 9.406C6.686 9.952 6 10.798 6 12C6 13.584 7.292 14.534 8.644 15.05C10.052 15.586 11.938 15.836 14 15.836V13.836C12.06 13.836 10.448 13.596 9.356 13.18C8.208 12.744 8 12.276 8 12C8 11.7 8.126 11.424 8.628 11.126C9.172 10.802 10.036 10.546 11.214 10.364C13.56 10.004 16.722 10 20 10H20.064C23.266 10 26.576 10 29.09 9.614C30.348 9.42 31.516 9.114 32.394 8.594C33.314 8.048 34 7.202 34 6ZM19 11.998C18.2044 11.998 17.4413 12.3141 16.8787 12.8767C16.3161 13.4393 16 14.2024 16 14.998V23.482L13.31 22.322C12.8109 22.1072 12.2723 21.9998 11.729 22.0067C11.1857 22.0137 10.65 22.1348 10.1566 22.3623C9.66318 22.5897 9.22314 22.9185 8.86503 23.3271C8.50693 23.7357 8.23878 24.215 8.078 24.734C7.96356 25.103 7.9767 25.4998 8.1153 25.8605C8.25389 26.2211 8.50988 26.5246 8.842 26.722L16.776 31.432C17.6785 31.8998 18.4002 32.6539 18.828 33.576C19.168 34.282 19.708 34.938 20.376 35.39C21.052 35.846 21.914 36.126 22.84 35.948L26.84 35.178C27.4017 35.0699 27.9208 34.8035 28.3361 34.4102C28.7514 34.0169 29.0456 33.513 29.184 32.958L30.848 26.304C31.012 25.6484 31.0413 24.9663 30.9343 24.299C30.8273 23.6318 30.5861 22.9931 30.2253 22.4217C29.8645 21.8502 29.3916 21.3578 28.8352 20.9742C28.2788 20.5907 27.6504 20.3239 26.988 20.19L22 19.182V14.998C22 14.2024 21.6839 13.4393 21.1213 12.8767C20.5587 12.3141 19.7957 11.998 19 11.998Z" fill="black"/>
</svg>
