<svg width="32" height="32" viewBox="0 0 32 32" fill="none" xmlns="http://www.w3.org/2000/svg">
<path d="M23.4059 22.9344C23.4664 22.9907 23.5149 23.0587 23.5485 23.1342C23.5822 23.2096 23.6003 23.2911 23.6017 23.3738C23.6032 23.4564 23.588 23.5385 23.557 23.6151C23.5261 23.6917 23.48 23.7613 23.4216 23.8198C23.3631 23.8782 23.2935 23.9243 23.2169 23.9552C23.1403 23.9862 23.0582 24.0014 22.9756 23.9999C22.8929 23.9984 22.8115 23.9804 22.736 23.9467C22.6605 23.9131 22.5925 23.8646 22.5362 23.8041L15.5865 16.8554L8.63671 23.8041C8.52006 23.9128 8.36576 23.972 8.20634 23.9692C8.04691 23.9664 7.8948 23.9018 7.78205 23.7891C7.6693 23.6763 7.60472 23.5242 7.6019 23.3648C7.59909 23.2053 7.65827 23.0511 7.76697 22.9344L14.7157 15.9846L7.76697 9.03491C7.65827 8.91825 7.59909 8.76396 7.6019 8.60453C7.60472 8.4451 7.6693 8.29299 7.78205 8.18024C7.8948 8.06749 8.04691 8.00291 8.20634 8.0001C8.36576 7.99728 8.52006 8.05646 8.63671 8.16516L15.5865 15.1139L22.5362 8.16516C22.6529 8.05646 22.8072 7.99728 22.9666 8.0001C23.126 8.00291 23.2781 8.06749 23.3909 8.18024C23.5036 8.29299 23.5682 8.4451 23.571 8.60453C23.5738 8.76396 23.5146 8.91825 23.4059 9.03491L16.4572 15.9846L23.4059 22.9344Z" fill="#141518"/>
</svg>
