<svg fill="none" height="24" viewBox="0 0 24 24" width="24" xmlns="http://www.w3.org/2000/svg"><path d="m7.14625 17.6725c.2725 0 .50042-.0921.68375-.2763.18333-.185.275-.4141.275-.6875 0-.2733-.09167-.5012-.275-.6837-.185-.1833-.41417-.275-.6875-.275s-.50167.0925-.685.2775c-.18333.1842-.275.4129-.275.6862 0 .2725.0925.5005.2775.6838.18417.1833.41292.275.68625.275zm0-4.7112c.2725 0 .50042-.0921.68375-.2763.18333-.185.275-.4142.275-.6875s-.09167-.5012-.275-.6837c-.185-.1834-.41417-.2751-.6875-.2751s-.50167.0921-.685.2763c-.18333.185-.275.4142-.275.6875s.0925.5012.2775.6837c.18417.1834.41292.2751.68625.2751zm0-4.7113c.2725 0 .50042-.0925.68375-.2775.18333-.18417.275-.41292.275-.68625 0-.2725-.09167-.50042-.275-.68375-.185-.18333-.41417-.275-.6875-.275s-.50167.09208-.685.27625c-.18333.185-.275.41417-.275.6875s.0925.50125.2775.68375c.18417.18333.41292.275.68625.275zm3.84375 9.0875h6.7312v-1.25h-6.7312zm0-4.7125h6.7312v-1.25h-6.7312zm0-4.7125h6.7312v-1.25h-6.7312zm-6.97125 14.0875c-.575 0-1.055-.1925-1.44-.5775-.38583-.3858-.57875-.8662-.57875-1.4412v-15.96255c0-.575.19292-1.055.57875-1.44.385-.38583.865-.57875 1.44-.57875h15.96255c.575 0 1.055.19292 1.44.57875.3858.385.5787.865.5787 1.44v15.96255c0 .575-.1925 1.055-.5775 1.44-.3858.3858-.8662.5787-1.4412.5787zm0-1.25h15.96255c.1916 0 .3679-.08.5287-.24.16-.1608.24-.3371.24-.5287v-15.96255c0-.19167-.08-.36792-.24-.52875-.1608-.16-.3371-.24-.5287-.24h-15.96255c-.19167 0-.36792.08-.52875.24-.16.16083-.24.33708-.24.52875v15.96255c0 .1916.08.3679.24.5287.16083.16.33708.24.52875.24z" fill="#141518"/></svg>