<svg width="40" height="40" viewBox="0 0 40 40" fill="none" xmlns="http://www.w3.org/2000/svg">
<path d="M30.5998 9.164C29.7826 8.381 28.8813 7.98425 27.919 7.98425C26.4145 7.98425 25.3169 8.95625 25.0165 9.254C24.5939 9.6725 10.177 24.0946 10.177 24.0946C10.0825 24.1896 10.0143 24.3074 9.979 24.4366C9.65388 25.6381 8.02525 30.9691 8.00908 31.0228C7.92548 31.2958 8.00008 31.5932 8.20145 31.7945C8.34351 31.9362 8.53594 32.0157 8.73656 32.0158C8.81418 32.0158 8.89253 32.0041 8.96903 31.979C9.02416 31.961 14.5269 30.1824 15.4325 29.912C15.552 29.876 15.6609 29.8114 15.7498 29.7238C16.322 29.1583 29.7684 15.8615 30.6609 14.9398C31.5841 13.9884 32.0428 12.9976 32.0251 11.9956C32.0068 11.0064 31.5271 10.0539 30.5998 9.164ZM24.7776 11.6525C25.1598 11.7451 26.0609 12.0477 26.9811 12.9762C27.9111 13.9145 28.1628 14.987 28.2097 15.2311C25.2607 18.1647 18.4724 24.881 15.7964 27.5281C15.5493 26.9525 15.1499 26.2591 14.5075 25.6119C13.723 24.8214 12.9246 24.3748 12.3089 24.1235C14.9571 21.4749 21.8733 14.5558 24.7776 11.6525ZM11.2904 25.3895C11.7025 25.499 12.5586 25.8166 13.4313 26.6963C14.1033 27.374 14.4205 28.1213 14.563 28.577C13.5205 28.9122 11.2379 29.7001 9.7874 30.1677C10.2171 28.7536 10.9431 26.5512 11.2904 25.3895ZM29.5724 13.868C29.5251 13.9162 29.4777 13.9643 29.4302 14.0123C29.1932 13.4018 28.7773 12.6173 28.0573 11.8913C27.3216 11.1496 26.5754 10.712 25.9773 10.4532C26.0282 10.4026 26.0676 10.3628 26.083 10.3478C26.1689 10.2631 26.9478 9.51871 27.9186 9.51871C28.4774 9.51871 29.026 9.77371 29.5503 10.2762C30.1716 10.8721 30.4919 11.4601 30.5024 12.0245C30.5125 12.6005 30.1997 13.2207 29.5724 13.868Z" fill="#141518"/>
</svg>
