<svg width="41" height="42" viewBox="0 0 41 42" fill="none" xmlns="http://www.w3.org/2000/svg">
<path d="M13.5283 31.5633C13.8916 31.5633 14.1955 31.4405 14.44 31.195C14.6844 30.9483 14.8066 30.6427 14.8066 30.2783C14.8066 29.9138 14.6844 29.61 14.44 29.3666C14.1933 29.1222 13.8877 29 13.5233 29C13.1588 29 12.8544 29.1233 12.61 29.37C12.3655 29.6155 12.2433 29.9205 12.2433 30.285C12.2433 30.6483 12.3666 30.9522 12.6133 31.1966C12.8588 31.4411 13.1638 31.5633 13.5283 31.5633ZM13.5283 25.2816C13.8916 25.2816 14.1955 25.1588 14.44 24.9133C14.6844 24.6666 14.8066 24.3611 14.8066 23.9966C14.8066 23.6322 14.6844 23.3283 14.44 23.085C14.1933 22.8405 13.8877 22.7183 13.5233 22.7183C13.1588 22.7183 12.8544 22.8411 12.61 23.0866C12.3655 23.3333 12.2433 23.6388 12.2433 24.0033C12.2433 24.3677 12.3666 24.6716 12.6133 24.915C12.8588 25.1594 13.1638 25.2816 13.5283 25.2816ZM13.5283 19C13.8916 19 14.1955 18.8766 14.44 18.63C14.6844 18.3844 14.8066 18.0794 14.8066 17.715C14.8066 17.3516 14.6844 17.0477 14.44 16.8033C14.1933 16.5588 13.8877 16.4366 13.5233 16.4366C13.1588 16.4366 12.8544 16.5594 12.61 16.805C12.3655 17.0516 12.2433 17.3572 12.2433 17.7216C12.2433 18.0861 12.3666 18.39 12.6133 18.6333C12.8588 18.8777 13.1638 19 13.5283 19ZM18.6533 31.1166H27.6283V29.45H18.6533V31.1166ZM18.6533 24.8333H27.6283V23.1666H18.6533V24.8333ZM18.6533 18.55H27.6283V16.8833H18.6533V18.55ZM9.35829 37.3333C8.59163 37.3333 7.95163 37.0766 7.43829 36.5633C6.92385 36.0488 6.66663 35.4083 6.66663 34.6416V13.3583C6.66663 12.5916 6.92385 11.9516 7.43829 11.4383C7.95163 10.9238 8.59163 10.6666 9.35829 10.6666H30.6416C31.4083 10.6666 32.0483 10.9238 32.5616 11.4383C33.0761 11.9516 33.3333 12.5916 33.3333 13.3583V34.6416C33.3333 35.4083 33.0766 36.0483 32.5633 36.5616C32.0488 37.0761 31.4083 37.3333 30.6416 37.3333H9.35829ZM9.35829 35.6666H30.6416C30.8972 35.6666 31.1322 35.56 31.3466 35.3466C31.56 35.1322 31.6666 34.8972 31.6666 34.6416V13.3583C31.6666 13.1027 31.56 12.8677 31.3466 12.6533C31.1322 12.44 30.8972 12.3333 30.6416 12.3333H9.35829C9.10274 12.3333 8.86774 12.44 8.65329 12.6533C8.43996 12.8677 8.33329 13.1027 8.33329 13.3583V34.6416C8.33329 34.8972 8.43996 35.1322 8.65329 35.3466C8.86774 35.56 9.10274 35.6666 9.35829 35.6666Z" fill="#141518"/>
<g clip-path="url(#clip0_1537_83084)">
<path d="M27.7094 16.4583L28.8604 11.4823L25 8.13542L30.1 7.69271L32.0833 3L34.0667 7.69271L39.1667 8.13542L35.3062 11.4823L36.4573 16.4583L32.0833 13.8198L27.7094 16.4583Z" fill="#141518"/>
</g>
<defs>
<clipPath id="clip0_1537_83084">
<rect width="17" height="17" fill="white" transform="translate(24 -1)"/>
</clipPath>
</defs>
</svg>
