<svg width="25" height="24" viewBox="0 0 25 24" fill="none" xmlns="http://www.w3.org/2000/svg">
<g id="mdi:lifebuoy">
<path id="Vector" d="M20.29 15.41C21.24 13.24 21.24 10.75 20.29 8.59L17.55 9.83C18.15 11.21 18.15 12.78 17.56 14.17L20.29 15.41ZM15.92 4.21C14.8428 3.74004 13.6802 3.49748 12.505 3.49748C11.3298 3.49748 10.1672 3.74004 9.09 4.21L10.33 6.94C11.72 6.35 13.29 6.35 14.68 6.95L15.92 4.21ZM4.71 8.58C4.24003 9.65893 3.99748 10.8232 3.99748 12C3.99748 13.1768 4.24003 14.3411 4.71 15.42L7.45 14.17C6.85 12.79 6.85 11.21 7.45 9.82L4.71 8.58ZM9.09 19.79C10.1672 20.2607 11.3304 20.5029 12.506 20.5012C13.6817 20.4995 14.8441 20.2539 15.92 19.78L14.68 17.05C13.9951 17.346 13.2571 17.4995 12.511 17.5012C11.7649 17.5029 11.0263 17.3528 10.34 17.06L9.09 19.79ZM12.5 2C13.8132 2 15.1136 2.25866 16.3268 2.7612C17.5401 3.26375 18.6425 4.00035 19.5711 4.92893C20.4997 5.85752 21.2362 6.95991 21.7388 8.17317C22.2413 9.38642 22.5 10.6868 22.5 12C22.5 14.6522 21.4464 17.1957 19.5711 19.0711C17.6957 20.9464 15.1522 22 12.5 22C11.1868 22 9.88642 21.7413 8.67317 21.2388C7.45991 20.7362 6.35752 19.9997 5.42893 19.0711C3.55357 17.1957 2.5 14.6522 2.5 12C2.5 9.34784 3.55357 6.8043 5.42893 4.92893C7.3043 3.05357 9.84784 2 12.5 2ZM12.5 8C11.4391 8 10.4217 8.42143 9.67157 9.17157C8.92143 9.92172 8.5 10.9391 8.5 12C8.5 13.0609 8.92143 14.0783 9.67157 14.8284C10.4217 15.5786 11.4391 16 12.5 16C13.5609 16 14.5783 15.5786 15.3284 14.8284C16.0786 14.0783 16.5 13.0609 16.5 12C16.5 10.9391 16.0786 9.92172 15.3284 9.17157C14.5783 8.42143 13.5609 8 12.5 8Z" fill="black"/>
</g>
</svg>
