<svg xmlns="http://www.w3.org/2000/svg" width="28" height="22" viewBox="0 0 28 22" fill="none">
  <path d="M27.2067 17.2922C27.2997 17.385 27.3735 17.4953 27.4238 17.6167C27.4741 17.7381 27.5 17.8682 27.5 17.9996C27.5 18.1311 27.4741 18.2612 27.4238 18.3826C27.3735 18.504 27.2997 18.6142 27.2067 18.7071L24.2068 21.707C24.0192 21.8946 23.7647 22 23.4993 22C23.234 22 22.9795 21.8946 22.7919 21.707C22.6042 21.5193 22.4988 21.2648 22.4988 20.9995C22.4988 20.7341 22.6042 20.4797 22.7919 20.292L24.0856 18.9996H22.6169C21.1845 18.9984 19.7731 18.6559 18.4995 18.0006C17.2259 17.3452 16.1269 16.3958 15.2933 15.231L10.0785 7.9314C9.43012 7.02552 8.57526 6.28713 7.58471 5.77741C6.59415 5.26769 5.4964 5.0013 4.38239 5.0003H1.49997C1.23476 5.0003 0.980416 4.89495 0.792885 4.70742C0.605354 4.5199 0.5 4.26556 0.5 4.00035C0.5 3.73515 0.605354 3.48081 0.792885 3.29328C0.980416 3.10576 1.23476 3.0004 1.49997 3.0004H4.38239C5.81471 3.00159 7.22613 3.34406 8.49971 3.99942C9.7733 4.65479 10.8724 5.60419 11.7059 6.76896L16.9208 14.0686C17.5691 14.9745 18.424 15.7129 19.4145 16.2226C20.4051 16.7323 21.5028 16.9987 22.6169 16.9997H24.0856L22.7919 15.7073C22.6042 15.5196 22.4988 15.2651 22.4988 14.9998C22.4988 14.7344 22.6042 14.48 22.7919 14.2923C22.9795 14.1047 23.234 13.9993 23.4993 13.9993C23.7647 13.9993 24.0192 14.1047 24.2068 14.2923L27.2067 17.2922ZM15.3746 8.37513C15.4814 8.45146 15.6023 8.506 15.7302 8.53562C15.8581 8.56525 15.9907 8.56938 16.1202 8.5478C16.2497 8.52621 16.3737 8.47932 16.4852 8.4098C16.5966 8.34028 16.6932 8.2495 16.7695 8.14264L16.9195 7.9339C17.5677 7.02738 18.4227 6.28841 19.4135 5.77824C20.4043 5.26806 21.5024 5.00138 22.6169 5.0003H24.0856L22.7919 6.29274C22.6042 6.48037 22.4988 6.73485 22.4988 7.0002C22.4988 7.26555 22.6042 7.52004 22.7919 7.70767C22.9795 7.8953 23.234 8.00071 23.4993 8.00071C23.7647 8.00071 24.0192 7.8953 24.2068 7.70767L27.2067 4.70782C27.2997 4.61495 27.3735 4.50467 27.4238 4.38327C27.4741 4.26188 27.5 4.13176 27.5 4.00035C27.5 3.86894 27.4741 3.73882 27.4238 3.61743C27.3735 3.49604 27.2997 3.38576 27.2067 3.29289L24.2068 0.293041C24.0192 0.10541 23.7647 -5.23069e-09 23.4993 0C23.234 5.23069e-09 22.9795 0.10541 22.7919 0.293041C22.6042 0.480672 22.4988 0.735155 22.4988 1.00051C22.4988 1.26586 22.6042 1.52034 22.7919 1.70797L24.0856 3.0004H22.6169C21.1845 3.00159 19.7731 3.34406 18.4995 3.99942C17.2259 4.65479 16.1269 5.60419 15.2933 6.76896L15.1433 6.9777C15.0665 7.08457 15.0116 7.20554 14.9817 7.33367C14.9517 7.46181 14.9474 7.5946 14.9689 7.72442C14.9903 7.85424 15.0372 7.97855 15.1069 8.09021C15.1765 8.20187 15.2675 8.2987 15.3746 8.37513ZM11.6247 13.6249C11.5178 13.5485 11.397 13.494 11.269 13.4644C11.1411 13.4348 11.0086 13.4306 10.879 13.4522C10.7495 13.4738 10.6255 13.5207 10.5141 13.5902C10.4027 13.6597 10.306 13.7505 10.2297 13.8574L10.0797 14.0661C9.43152 14.9726 8.57658 15.7116 7.58577 16.2218C6.59497 16.7319 5.49683 16.9986 4.38239 16.9997H1.49997C1.23476 16.9997 0.980416 17.105 0.792885 17.2926C0.605354 17.4801 0.5 17.7344 0.5 17.9996C0.5 18.2648 0.605354 18.5192 0.792885 18.7067C0.980416 18.8942 1.23476 18.9996 1.49997 18.9996H4.38239C5.81471 18.9984 7.22613 18.6559 8.49971 18.0006C9.7733 17.3452 10.8724 16.3958 11.7059 15.231L11.8559 15.0223C11.9327 14.9154 11.9876 14.7945 12.0176 14.6663C12.0475 14.5382 12.0519 14.4054 12.0304 14.2756C12.0089 14.1458 11.962 14.0215 11.8924 13.9098C11.8228 13.7981 11.7318 13.7013 11.6247 13.6249Z" fill="#F1F1F1"/>
</svg>
