<?xml version="1.0" standalone="no"?>
<svg xmlns="http://www.w3.org/2000/svg" width="300" height="300"><defs><clipPath id="clip-path-dot-color"><rect x="0" y="96" width="12" height="12" transform="rotate(0,6,102)"/><rect x="0" y="132" width="12" height="12" transform="rotate(0,6,138)"/><rect x="0" y="156" width="12" height="12" transform="rotate(0,6,162)"/><rect x="0" y="168" width="12" height="12" transform="rotate(0,6,174)"/><rect x="0" y="192" width="12" height="12" transform="rotate(0,6,198)"/><rect x="12" y="120" width="12" height="12" transform="rotate(0,18,126)"/><rect x="12" y="132" width="12" height="12" transform="rotate(0,18,138)"/><rect x="12" y="144" width="12" height="12" transform="rotate(0,18,150)"/><rect x="12" y="180" width="12" height="12" transform="rotate(0,18,186)"/><rect x="24" y="120" width="12" height="12" transform="rotate(0,30,126)"/><rect x="24" y="144" width="12" height="12" transform="rotate(0,30,150)"/><rect x="24" y="168" width="12" height="12" transform="rotate(0,30,174)"/><rect x="24" y="180" width="12" height="12" transform="rotate(0,30,186)"/><rect x="36" y="108" width="12" height="12" transform="rotate(0,42,114)"/><rect x="36" y="120" width="12" height="12" transform="rotate(0,42,126)"/><rect x="36" y="156" width="12" height="12" transform="rotate(0,42,162)"/><rect x="36" y="168" width="12" height="12" transform="rotate(0,42,174)"/><rect x="36" y="192" width="12" height="12" transform="rotate(0,42,198)"/><rect x="48" y="96" width="12" height="12" transform="rotate(0,54,102)"/><rect x="48" y="108" width="12" height="12" transform="rotate(0,54,114)"/><rect x="48" y="156" width="12" height="12" transform="rotate(0,54,162)"/><rect x="48" y="168" width="12" height="12" transform="rotate(0,54,174)"/><rect x="48" y="192" width="12" height="12" transform="rotate(0,54,198)"/><rect x="60" y="96" width="12" height="12" transform="rotate(0,66,102)"/><rect x="60" y="120" width="12" height="12" transform="rotate(0,66,126)"/><rect x="60" y="144" width="12" height="12" transform="rotate(0,66,150)"/><rect x="60" y="156" width="12" height="12" transform="rotate(0,66,162)"/><rect x="60" y="180" width="12" height="12" transform="rotate(0,66,186)"/><rect x="72" y="96" width="12" height="12" transform="rotate(0,78,102)"/><rect x="72" y="120" width="12" height="12" transform="rotate(0,78,126)"/><rect x="72" y="144" width="12" height="12" transform="rotate(0,78,150)"/><rect x="72" y="168" width="12" height="12" transform="rotate(0,78,174)"/><rect x="72" y="192" width="12" height="12" transform="rotate(0,78,198)"/><rect x="84" y="120" width="12" height="12" transform="rotate(0,90,126)"/><rect x="84" y="132" width="12" height="12" transform="rotate(0,90,138)"/><rect x="84" y="192" width="12" height="12" transform="rotate(0,90,198)"/><rect x="96" y="12" width="12" height="12" transform="rotate(0,102,18)"/><rect x="96" y="24" width="12" height="12" transform="rotate(0,102,30)"/><rect x="96" y="36" width="12" height="12" transform="rotate(0,102,42)"/><rect x="96" y="48" width="12" height="12" transform="rotate(0,102,54)"/><rect x="96" y="60" width="12" height="12" transform="rotate(0,102,66)"/><rect x="96" y="72" width="12" height="12" transform="rotate(0,102,78)"/><rect x="96" y="84" width="12" height="12" transform="rotate(0,102,90)"/><rect x="96" y="108" width="12" height="12" transform="rotate(0,102,114)"/><rect x="96" y="120" width="12" height="12" transform="rotate(0,102,126)"/><rect x="96" y="144" width="12" height="12" transform="rotate(0,102,150)"/><rect x="96" y="156" width="12" height="12" transform="rotate(0,102,162)"/><rect x="96" y="228" width="12" height="12" transform="rotate(0,102,234)"/><rect x="96" y="240" width="12" height="12" transform="rotate(0,102,246)"/><rect x="96" y="288" width="12" height="12" transform="rotate(0,102,294)"/><rect x="108" y="12" width="12" height="12" transform="rotate(0,114,18)"/><rect x="108" y="36" width="12" height="12" transform="rotate(0,114,42)"/><rect x="108" y="48" width="12" height="12" transform="rotate(0,114,54)"/><rect x="108" y="60" width="12" height="12" transform="rotate(0,114,66)"/><rect x="108" y="120" width="12" height="12" transform="rotate(0,114,126)"/><rect x="108" y="144" width="12" height="12" transform="rotate(0,114,150)"/><rect x="108" y="156" width="12" height="12" transform="rotate(0,114,162)"/><rect x="108" y="228" width="12" height="12" transform="rotate(0,114,234)"/><rect x="108" y="276" width="12" height="12" transform="rotate(0,114,282)"/><rect x="120" y="12" width="12" height="12" transform="rotate(0,126,18)"/><rect x="120" y="36" width="12" height="12" transform="rotate(0,126,42)"/><rect x="120" y="72" width="12" height="12" transform="rotate(0,126,78)"/><rect x="120" y="96" width="12" height="12" transform="rotate(0,126,102)"/><rect x="120" y="108" width="12" height="12" transform="rotate(0,126,114)"/><rect x="120" y="132" width="12" height="12" transform="rotate(0,126,138)"/><rect x="120" y="156" width="12" height="12" transform="rotate(0,126,162)"/><rect x="120" y="168" width="12" height="12" transform="rotate(0,126,174)"/><rect x="120" y="180" width="12" height="12" transform="rotate(0,126,186)"/><rect x="120" y="192" width="12" height="12" transform="rotate(0,126,198)"/><rect x="120" y="228" width="12" height="12" transform="rotate(0,126,234)"/><rect x="120" y="240" width="12" height="12" transform="rotate(0,126,246)"/><rect x="120" y="252" width="12" height="12" transform="rotate(0,126,258)"/><rect x="120" y="276" width="12" height="12" transform="rotate(0,126,282)"/><rect x="120" y="288" width="12" height="12" transform="rotate(0,126,294)"/><rect x="132" y="12" width="12" height="12" transform="rotate(0,138,18)"/><rect x="132" y="24" width="12" height="12" transform="rotate(0,138,30)"/><rect x="132" y="36" width="12" height="12" transform="rotate(0,138,42)"/><rect x="132" y="96" width="12" height="12" transform="rotate(0,138,102)"/><rect x="132" y="120" width="12" height="12" transform="rotate(0,138,126)"/><rect x="132" y="168" width="12" height="12" transform="rotate(0,138,174)"/><rect x="132" y="180" width="12" height="12" transform="rotate(0,138,186)"/><rect x="132" y="192" width="12" height="12" transform="rotate(0,138,198)"/><rect x="132" y="216" width="12" height="12" transform="rotate(0,138,222)"/><rect x="132" y="288" width="12" height="12" transform="rotate(0,138,294)"/><rect x="144" y="48" width="12" height="12" transform="rotate(0,150,54)"/><rect x="144" y="72" width="12" height="12" transform="rotate(0,150,78)"/><rect x="144" y="144" width="12" height="12" transform="rotate(0,150,150)"/><rect x="144" y="180" width="12" height="12" transform="rotate(0,150,186)"/><rect x="144" y="204" width="12" height="12" transform="rotate(0,150,210)"/><rect x="144" y="216" width="12" height="12" transform="rotate(0,150,222)"/><rect x="144" y="240" width="12" height="12" transform="rotate(0,150,246)"/><rect x="144" y="264" width="12" height="12" transform="rotate(0,150,270)"/><rect x="144" y="276" width="12" height="12" transform="rotate(0,150,282)"/><rect x="144" y="288" width="12" height="12" transform="rotate(0,150,294)"/><rect x="156" y="0" width="12" height="12" transform="rotate(0,162,6)"/><rect x="156" y="36" width="12" height="12" transform="rotate(0,162,42)"/><rect x="156" y="60" width="12" height="12" transform="rotate(0,162,66)"/><rect x="156" y="84" width="12" height="12" transform="rotate(0,162,90)"/><rect x="156" y="108" width="12" height="12" transform="rotate(0,162,114)"/><rect x="156" y="156" width="12" height="12" transform="rotate(0,162,162)"/><rect x="156" y="192" width="12" height="12" transform="rotate(0,162,198)"/><rect x="156" y="228" width="12" height="12" transform="rotate(0,162,234)"/><rect x="156" y="252" width="12" height="12" transform="rotate(0,162,258)"/><rect x="156" y="276" width="12" height="12" transform="rotate(0,162,282)"/><rect x="168" y="0" width="12" height="12" transform="rotate(0,174,6)"/><rect x="168" y="48" width="12" height="12" transform="rotate(0,174,54)"/><rect x="168" y="72" width="12" height="12" transform="rotate(0,174,78)"/><rect x="168" y="120" width="12" height="12" transform="rotate(0,174,126)"/><rect x="168" y="132" width="12" height="12" transform="rotate(0,174,138)"/><rect x="168" y="144" width="12" height="12" transform="rotate(0,174,150)"/><rect x="168" y="168" width="12" height="12" transform="rotate(0,174,174)"/><rect x="168" y="180" width="12" height="12" transform="rotate(0,174,186)"/><rect x="168" y="204" width="12" height="12" transform="rotate(0,174,210)"/><rect x="168" y="228" width="12" height="12" transform="rotate(0,174,234)"/><rect x="168" y="240" width="12" height="12" transform="rotate(0,174,246)"/><rect x="168" y="252" width="12" height="12" transform="rotate(0,174,258)"/><rect x="168" y="276" width="12" height="12" transform="rotate(0,174,282)"/><rect x="168" y="288" width="12" height="12" transform="rotate(0,174,294)"/><rect x="180" y="0" width="12" height="12" transform="rotate(0,186,6)"/><rect x="180" y="24" width="12" height="12" transform="rotate(0,186,30)"/><rect x="180" y="60" width="12" height="12" transform="rotate(0,186,66)"/><rect x="180" y="120" width="12" height="12" transform="rotate(0,186,126)"/><rect x="180" y="168" width="12" height="12" transform="rotate(0,186,174)"/><rect x="180" y="180" width="12" height="12" transform="rotate(0,186,186)"/><rect x="180" y="192" width="12" height="12" transform="rotate(0,186,198)"/><rect x="180" y="204" width="12" height="12" transform="rotate(0,186,210)"/><rect x="180" y="228" width="12" height="12" transform="rotate(0,186,234)"/><rect x="180" y="240" width="12" height="12" transform="rotate(0,186,246)"/><rect x="180" y="288" width="12" height="12" transform="rotate(0,186,294)"/><rect x="192" y="0" width="12" height="12" transform="rotate(0,198,6)"/><rect x="192" y="24" width="12" height="12" transform="rotate(0,198,30)"/><rect x="192" y="36" width="12" height="12" transform="rotate(0,198,42)"/><rect x="192" y="48" width="12" height="12" transform="rotate(0,198,54)"/><rect x="192" y="60" width="12" height="12" transform="rotate(0,198,66)"/><rect x="192" y="72" width="12" height="12" transform="rotate(0,198,78)"/><rect x="192" y="84" width="12" height="12" transform="rotate(0,198,90)"/><rect x="192" y="108" width="12" height="12" transform="rotate(0,198,114)"/><rect x="192" y="144" width="12" height="12" transform="rotate(0,198,150)"/><rect x="192" y="192" width="12" height="12" transform="rotate(0,198,198)"/><rect x="192" y="204" width="12" height="12" transform="rotate(0,198,210)"/><rect x="192" y="216" width="12" height="12" transform="rotate(0,198,222)"/><rect x="192" y="228" width="12" height="12" transform="rotate(0,198,234)"/><rect x="192" y="240" width="12" height="12" transform="rotate(0,198,246)"/><rect x="192" y="264" width="12" height="12" transform="rotate(0,198,270)"/><rect x="204" y="96" width="12" height="12" transform="rotate(0,210,102)"/><rect x="204" y="144" width="12" height="12" transform="rotate(0,210,150)"/><rect x="204" y="180" width="12" height="12" transform="rotate(0,210,186)"/><rect x="204" y="192" width="12" height="12" transform="rotate(0,210,198)"/><rect x="204" y="240" width="12" height="12" transform="rotate(0,210,246)"/><rect x="204" y="252" width="12" height="12" transform="rotate(0,210,258)"/><rect x="216" y="96" width="12" height="12" transform="rotate(0,222,102)"/><rect x="216" y="132" width="12" height="12" transform="rotate(0,222,138)"/><rect x="216" y="156" width="12" height="12" transform="rotate(0,222,162)"/><rect x="216" y="168" width="12" height="12" transform="rotate(0,222,174)"/><rect x="216" y="192" width="12" height="12" transform="rotate(0,222,198)"/><rect x="216" y="216" width="12" height="12" transform="rotate(0,222,222)"/><rect x="216" y="240" width="12" height="12" transform="rotate(0,222,246)"/><rect x="216" y="264" width="12" height="12" transform="rotate(0,222,270)"/><rect x="216" y="276" width="12" height="12" transform="rotate(0,222,282)"/><rect x="216" y="288" width="12" height="12" transform="rotate(0,222,294)"/><rect x="228" y="96" width="12" height="12" transform="rotate(0,234,102)"/><rect x="228" y="108" width="12" height="12" transform="rotate(0,234,114)"/><rect x="228" y="132" width="12" height="12" transform="rotate(0,234,138)"/><rect x="228" y="144" width="12" height="12" transform="rotate(0,234,150)"/><rect x="228" y="156" width="12" height="12" transform="rotate(0,234,162)"/><rect x="228" y="168" width="12" height="12" transform="rotate(0,234,174)"/><rect x="228" y="192" width="12" height="12" transform="rotate(0,234,198)"/><rect x="228" y="240" width="12" height="12" transform="rotate(0,234,246)"/><rect x="228" y="252" width="12" height="12" transform="rotate(0,234,258)"/><rect x="228" y="288" width="12" height="12" transform="rotate(0,234,294)"/><rect x="240" y="96" width="12" height="12" transform="rotate(0,246,102)"/><rect x="240" y="108" width="12" height="12" transform="rotate(0,246,114)"/><rect x="240" y="120" width="12" height="12" transform="rotate(0,246,126)"/><rect x="240" y="144" width="12" height="12" transform="rotate(0,246,150)"/><rect x="240" y="168" width="12" height="12" transform="rotate(0,246,174)"/><rect x="240" y="180" width="12" height="12" transform="rotate(0,246,186)"/><rect x="240" y="192" width="12" height="12" transform="rotate(0,246,198)"/><rect x="240" y="204" width="12" height="12" transform="rotate(0,246,210)"/><rect x="240" y="216" width="12" height="12" transform="rotate(0,246,222)"/><rect x="240" y="228" width="12" height="12" transform="rotate(0,246,234)"/><rect x="240" y="240" width="12" height="12" transform="rotate(0,246,246)"/><rect x="240" y="264" width="12" height="12" transform="rotate(0,246,270)"/><rect x="240" y="276" width="12" height="12" transform="rotate(0,246,282)"/><rect x="240" y="288" width="12" height="12" transform="rotate(0,246,294)"/><rect x="252" y="96" width="12" height="12" transform="rotate(0,258,102)"/><rect x="252" y="156" width="12" height="12" transform="rotate(0,258,162)"/><rect x="252" y="180" width="12" height="12" transform="rotate(0,258,186)"/><rect x="252" y="204" width="12" height="12" transform="rotate(0,258,210)"/><rect x="252" y="216" width="12" height="12" transform="rotate(0,258,222)"/><rect x="252" y="240" width="12" height="12" transform="rotate(0,258,246)"/><rect x="252" y="252" width="12" height="12" transform="rotate(0,258,258)"/><rect x="252" y="264" width="12" height="12" transform="rotate(0,258,270)"/><rect x="252" y="276" width="12" height="12" transform="rotate(0,258,282)"/><rect x="252" y="288" width="12" height="12" transform="rotate(0,258,294)"/><rect x="264" y="96" width="12" height="12" transform="rotate(0,270,102)"/><rect x="264" y="108" width="12" height="12" transform="rotate(0,270,114)"/><rect x="264" y="144" width="12" height="12" transform="rotate(0,270,150)"/><rect x="264" y="168" width="12" height="12" transform="rotate(0,270,174)"/><rect x="264" y="252" width="12" height="12" transform="rotate(0,270,258)"/><rect x="264" y="264" width="12" height="12" transform="rotate(0,270,270)"/><rect x="264" y="288" width="12" height="12" transform="rotate(0,270,294)"/><rect x="276" y="96" width="12" height="12" transform="rotate(0,282,102)"/><rect x="276" y="108" width="12" height="12" transform="rotate(0,282,114)"/><rect x="276" y="132" width="12" height="12" transform="rotate(0,282,138)"/><rect x="276" y="168" width="12" height="12" transform="rotate(0,282,174)"/><rect x="276" y="180" width="12" height="12" transform="rotate(0,282,186)"/><rect x="276" y="192" width="12" height="12" transform="rotate(0,282,198)"/><rect x="276" y="204" width="12" height="12" transform="rotate(0,282,210)"/><rect x="276" y="228" width="12" height="12" transform="rotate(0,282,234)"/><rect x="276" y="240" width="12" height="12" transform="rotate(0,282,246)"/><rect x="276" y="252" width="12" height="12" transform="rotate(0,282,258)"/><rect x="276" y="288" width="12" height="12" transform="rotate(0,282,294)"/><rect x="288" y="120" width="12" height="12" transform="rotate(0,294,126)"/><rect x="288" y="132" width="12" height="12" transform="rotate(0,294,138)"/><rect x="288" y="156" width="12" height="12" transform="rotate(0,294,162)"/><rect x="288" y="168" width="12" height="12" transform="rotate(0,294,174)"/><rect x="288" y="204" width="12" height="12" transform="rotate(0,294,210)"/><rect x="288" y="228" width="12" height="12" transform="rotate(0,294,234)"/><rect x="288" y="240" width="12" height="12" transform="rotate(0,294,246)"/><rect x="288" y="252" width="12" height="12" transform="rotate(0,294,258)"/><rect x="288" y="264" width="12" height="12" transform="rotate(0,294,270)"/><rect x="288" y="276" width="12" height="12" transform="rotate(0,294,282)"/><rect x="288" y="288" width="12" height="12" transform="rotate(0,294,294)"/><path clip-rule="evenodd" d="M 0 0v 84h 84v -84zM 12 12h 60v 60h -60z" transform="rotate(0,42,42)"/><rect x="24" y="24" width="12" height="12" transform="rotate(0,30,30)"/><rect x="24" y="36" width="12" height="12" transform="rotate(0,30,42)"/><rect x="24" y="48" width="12" height="12" transform="rotate(0,30,54)"/><rect x="36" y="24" width="12" height="12" transform="rotate(0,42,30)"/><rect x="36" y="36" width="12" height="12" transform="rotate(0,42,42)"/><rect x="36" y="48" width="12" height="12" transform="rotate(0,42,54)"/><rect x="48" y="24" width="12" height="12" transform="rotate(0,54,30)"/><rect x="48" y="36" width="12" height="12" transform="rotate(0,54,42)"/><rect x="48" y="48" width="12" height="12" transform="rotate(0,54,54)"/><path clip-rule="evenodd" d="M 216 0v 84h 84v -84zM 228 12h 60v 60h -60z" transform="rotate(90,258,42)"/><rect x="240" y="24" width="12" height="12" transform="rotate(0,246,30)"/><rect x="240" y="36" width="12" height="12" transform="rotate(0,246,42)"/><rect x="240" y="48" width="12" height="12" transform="rotate(0,246,54)"/><rect x="252" y="24" width="12" height="12" transform="rotate(0,258,30)"/><rect x="252" y="36" width="12" height="12" transform="rotate(0,258,42)"/><rect x="252" y="48" width="12" height="12" transform="rotate(0,258,54)"/><rect x="264" y="24" width="12" height="12" transform="rotate(0,270,30)"/><rect x="264" y="36" width="12" height="12" transform="rotate(0,270,42)"/><rect x="264" y="48" width="12" height="12" transform="rotate(0,270,54)"/><path clip-rule="evenodd" d="M 0 216v 84h 84v -84zM 12 228h 60v 60h -60z" transform="rotate(-90,42,258)"/><rect x="24" y="240" width="12" height="12" transform="rotate(0,30,246)"/><rect x="24" y="252" width="12" height="12" transform="rotate(0,30,258)"/><rect x="24" y="264" width="12" height="12" transform="rotate(0,30,270)"/><rect x="36" y="240" width="12" height="12" transform="rotate(0,42,246)"/><rect x="36" y="252" width="12" height="12" transform="rotate(0,42,258)"/><rect x="36" y="264" width="12" height="12" transform="rotate(0,42,270)"/><rect x="48" y="240" width="12" height="12" transform="rotate(0,54,246)"/><rect x="48" y="252" width="12" height="12" transform="rotate(0,54,258)"/><rect x="48" y="264" width="12" height="12" transform="rotate(0,54,270)"/></clipPath></defs><rect x="0" y="0" height="300" width="300" clip-path="url('#clip-path-background-color')" fill="#fff"/><rect x="0" y="0" height="300" width="300" clip-path="url('#clip-path-dot-color')" fill="#000000"/></svg>